<html>
<head>
<meta charset="UTF-8">
<meta name="viewport" content="width=device-width, initial-scale=1.0"/>

<style>
.comment
{
    padding-left: 20px;
    margin-top: 4px;
    margin-right: 4px;
    margin-bottom: 4px;
    border: 2px #000 solid;
}
.submission
{
    border: 4px #00f solid;
    padding-left: 20px;
}
.hidden
{
    display: none;
}
</style>
</head>
<body><div class="submission" id="t3_69bg6m">
    <p class="userinfo">
        <a href="https://www.reddit.com/u/vcdupper">vcdupper</a>
        <span class="score"> | 31 points</span>
        <span class="timestamp"> | May 05 2017 00:23:49</span>
    </p>
    <strong>[MOVIE] Fantasia.2000.1999.1080p.PROPER.BluRay.x264-FLAME [5.47GB]</strong>
    <p><p>Add mega<br>
.nz/#!gzYHhTAR<br>
!CBKjcuME0OYbRX0n7Sg8WILfDLm7DogOA0BnKgdsinM  </p>
<hr>
<h3><a href="https://youtu.be/ixZnhA7Wmq4">Unsure How To Download?</a>  &lt;------CLICK HERE!!!</h3>
<hr>
<h3>SPECS:</h3>
<p>Format : Matroska<br>
Format version : Version 4 / Version 2<br>
File size : 5.47 GiB<br>
Duration : 1 h 14 min<br>
Overall bit rate : 10.5 Mb/s<br>
Encoded date : UTC 2017-05-02 08:54:32<br>
Writing application : mkvmerge v11.0.0 (\'Alive\') 64bit<br>
Writing library : libebml v1.3.4 + libmatroska v1.4.5  </p>
<p>Video<br>
ID : 1<br>
Format : AVC<br>
Format/Info : Advanced Video Codec<br>
Format profile : High@L4.1<br>
Format settings, CABAC : Yes<br>
Format settings, ReFrames : 4 frames<br>
Codec ID : V_MPEG4/ISO/AVC<br>
Duration : 1 h 14 min <br>
Bit rate : 8 990 kb/s<br>
Width : 1 920 pixels<br>
Height : 1 080 pixels<br>
Display aspect ratio : 16:9<br>
Frame rate mode : Constant<br>
Frame rate : 23.976 (24000/1001) FPS<br>
Color space : YUV<br>
Chroma subsampling : 4:2:0<br>
Bit depth : 8 bits<br>
Scan type : Progressive<br>
Bits/(Pixel*Frame) : 0.181<br>
Stream size : 4.68 GiB (86%)<br>
Writing library : x264 core 148 r2762 90a61ec<br>
Language : English<br>
Default : Yes<br>
Forced : No  </p>
<p>Audio<br>
ID : 2<br>
Format : DTS<br>
Format/Info : Digital Theater Systems<br>
Mode : 16<br>
Format settings, Endianness : Big<br>
Codec ID : A_DTS<br>
Duration : 1 h 14 min<br>
Bit rate mode : Constant<br>
Bit rate : 1 509 kb/s<br>
Channel(s) : 6 channels<br>
Channel positions : Front: L C R, Side: L R, LFE<br>
Sampling rate : 48.0 kHz<br>
Frame rate : 93.750 FPS (512 spf)<br>
Bit depth : 24 bits<br>
Compression mode : Lossy<br>
Stream size : 805 MiB (14%)<br>
Title : English DTS 1509 kbps<br>
Language : English<br>
Default : No<br>
Forced : No  </p>
<p>Text #1<br>
ID : 3<br>
Format : UTF-8<br>
Codec ID : S_TEXT/UTF8<br>
Codec ID/Info : UTF-8 Plain Text<br>
Duration : 1 h 14 min<br>
Bit rate : 12 b/s<br>
Count of elements : 162<br>
Stream size : 6.61 KiB (0%)<br>
Language : English<br>
Default : No<br>
Forced : No  </p>
<p>Text #2<br>
ID : 4<br>
Format : UTF-8<br>
Codec ID : S_TEXT/UTF8<br>
Codec ID/Info : UTF-8 Plain Text<br>
Duration : 1 h 14 min<br>
Bit rate : 9 b/s<br>
Count of elements : 131<br>
Stream size : 5.06 KiB (0%)<br>
Language : Polish<br>
Default : No<br>
Forced : No  </p></p>
    <p class="toolbar">
        <a href="https://www.reddit.com/r/megalinks/comments/69bg6m">permalink</a>
    </p>
</div>
<div class="comment" id="t1_dh5b95c">
    <p class="userinfo">
        <a
        class="toggle_hide_button"
        href="javascript:void(0)"
        onclick="toggle_collapse(this.parentElement.parentElement)">[-]
        </a>
        <a href="https://www.reddit.com/u/dosemeele">dosemeele</a>
        <span class="score"> | 2 points</span>
        <span class="timestamp"> | May 05 2017 01:00:36</span>
    </p>
    <div class="collapsible">
        <p>Thank you!</p>
        <p class="toolbar">
            <a href="https://www.reddit.com/r/megalinks/comments/69bg6m/_/dh5b95c">permalink</a>
        </p>
        
    </div>
</div>

<div class="comment" id="t1_dh7253v">
    <p class="userinfo">
        <a
        class="toggle_hide_button"
        href="javascript:void(0)"
        onclick="toggle_collapse(this.parentElement.parentElement)">[-]
        </a>
        <a href="https://www.reddit.com/u/blueking13">blueking13</a>
        <span class="score"> | 2 points</span>
        <span class="timestamp"> | May 06 2017 04:27:14</span>
    </p>
    <div class="collapsible">
        <p>aaaaand down</p>
        <p class="toolbar">
            <a href="https://www.reddit.com/r/megalinks/comments/69bg6m/_/dh7253v">permalink</a>
        </p>
        
    </div>
</div>
</body>

<script>
function toggle_collapse(comment_div)
{
    var button = comment_div.getElementsByClassName("toggle_hide_button")[0];
    var collapsible = comment_div.getElementsByClassName("collapsible")[0];
    if (collapsible.classList.contains("hidden"))
    {
        collapsible.classList.remove("hidden");
        button.innerText = "[-]";
    }
    else
    {
        collapsible.classList.add("hidden");
        button.innerText = "[+]";
    }
}
</script>
</html>
